{
  "asset": {
    "extras": {
      "author": "Abner Wu (https://sketchfab.com/dashdu)",
      "license": "CC-BY-4.0 (http://creativecommons.org/licenses/by/4.0/)",
      "source": "https://sketchfab.com/3d-models/tyrannosaurus-rex-8ca1f4a7ff7041b5b4aa663634934f4c",
      "title": "Tyrannosaurus Rex"
    },
    "generator": "gltfeditor.com",
    "version": "2.0"
  },
  "buffers": [
    {
      "uri": "data:application/octet-stream;base64,",
      "byteLength": 2717928
    }
  ],
  "bufferViews": [
    {
      "buffer": 0,
      "byteOffset": 0,
      "byteLength": 2717928,
      "target": 34962,
      "byteStride": 12
    }
  ],
  "accessors": [
    {
      "bufferView": 0,
      "byteOffset": 0,
      "componentType": 5126,
      "count": 226494,
      "max": [
        44.501220703125,
        55.099998474121094,
        1
      ],
      "min": [
        -59.099910736083984,
        -44.192020416259766,
        -1
      ],
      "type": "VEC3"
    }
  ],
  "scene": 0,
  "scenes": [
    {
      "nodes": [
        1
      ],
      "name": "ImageToStl.com_text.obj"
    }
  ],
  "nodes": [
    {
      "mesh": 0
    },
    {
      "name": "ImageToStl.com_text.obj",
      "children": [
        0
      ]
    }
  ],
  "meshes": [
    {
      "primitives": [
        {
          "material": 0,
          "mode": 4,
          "attributes": {
            "POSITION": 0
          }
        }
      ]
    }
  ],
  "materials": [
    {
      "pbrMetallicRoughness": {
        "baseColorFactor": [
          0.9333333333333333,
          0.9333333333333333,
          0.9333333333333333,
          1
        ],
        "metallicFactor": 1,
        "roughnessFactor": 1
      },
      "emissiveFactor": [
        0,
        0,
        0
      ],
      "alphaMode": "OPAQUE",
      "doubleSided": false
    }
  ]
}