{
	"asset":{
		"generator":"Khronos glTF Blender I/O v3.5.30",
		"version":"2.0"
	},
	"scene":0,
	"scenes":[
		{
			"name":"Scene",
			"nodes":[
				0,
				1,
				2,
				3,
				4,
				5,
				6,
				7
			]
		}
	],
	"nodes":[
		{
			"name":"logo.001",
			"rotation":[
				0.70710688829422,
				0,
				0,
				0.7071066498756409
			],
			"translation":[
				1.560926079750061,
				-1.47663152217865,
				2.1567739167949185e-06
			]
		},
		{
			"mesh":0,
			"name":"background",
			"rotation":[
				0.70710688829422,
				0,
				0,
				0.7071066498756409
			],
			"translation":[
				0.800000011920929,
				-0.699999988079071,
				0
			]
		},
		{
			"mesh":1,
			"name":"name",
			"rotation":[
				0.70710688829422,
				0,
				0,
				0.7071066498756409
			]
		},
		{
			"mesh":2,
			"name":"mark",
			"rotation":[
				0.70710688829422,
				0,
				0,
				0.7071066498756409
			],
			"translation":[
				0,
				-0.46755215525627136,
				0
			]
		},
		{
			"mesh":3,
			"name":"reviews",
			"rotation":[
				0.70710688829422,
				0,
				0,
				0.7071066498756409
			],
			"translation":[
				0,
				-0.6175521612167358,
				0
			]
		},
		{
			"name":"pay",
			"rotation":[
				0.70710688829422,
				0,
				0,
				0.7071066498756409
			],
			"translation":[
				0,
				-0.9675521850585938,
				0
			]
		},
		{
			"name":"insider",
			"rotation":[
				0.70710688829422,
				0,
				0,
				0.7071066498756409
			],
			"translation":[
				0,
				-1.1788233518600464,
				0
			]
		},
		{
			"name":"logo",
			"rotation":[
				0.70710688829422,
				0,
				0,
				0.7071066498756409
			],
			"translation":[
				1.560926079750061,
				-1.47663152217865,
				2.1567739167949185e-06
			]
		}
	],
	"materials":[
		{
			"doubleSided":true,
			"name":"Material.037",
			"pbrMetallicRoughness":{
				"baseColorFactor":[
					0.8000000715255737,
					0.7407233119010925,
					0.34376785159111023,
					1
				],
				"metallicFactor":0,
				"roughnessFactor":0.5
			}
		},
		{
			"doubleSided":true,
			"name":"Material.038",
			"pbrMetallicRoughness":{
				"baseColorFactor":[
					0.004396624863147736,
					0.5070470571517944,
					0,
					1
				],
				"metallicFactor":0,
				"roughnessFactor":0.5
			}
		},
		{
			"doubleSided":true,
			"name":"Material.039",
			"pbrMetallicRoughness":{
				"baseColorFactor":[
					0,
					0.027033451944589615,
					1,
					1
				],
				"metallicFactor":0,
				"roughnessFactor":0.5
			}
		},
		{
			"doubleSided":true,
			"name":"Material.040",
			"pbrMetallicRoughness":{
				"baseColorFactor":[
					0,
					0,
					0,
					1
				],
				"metallicFactor":0,
				"roughnessFactor":0.5
			}
		}
	],
	"meshes":[
		{
			"name":"Plane.007",
			"primitives":[
				{
					"attributes":{
						"POSITION":0,
						"TEXCOORD_0":1,
						"NORMAL":2
					},
					"indices":3,
					"material":0
				}
			]
		},
		{
			"name":"Text.024",
			"primitives":[
				{
					"attributes":{
						"POSITION":4,
						"TEXCOORD_0":5,
						"NORMAL":6
					},
					"indices":7,
					"material":1
				}
			]
		},
		{
			"name":"Text.025",
			"primitives":[
				{
					"attributes":{
						"POSITION":8,
						"TEXCOORD_0":9,
						"NORMAL":10
					},
					"indices":11,
					"material":2
				}
			]
		},
		{
			"name":"Text.026",
			"primitives":[
				{
					"attributes":{
						"POSITION":12,
						"TEXCOORD_0":13,
						"NORMAL":14
					},
					"indices":15,
					"material":3
				}
			]
		}
	],
	"accessors":[
		{
			"bufferView":0,
			"componentType":5126,
			"count":4,
			"max":[
				1,
				0,
				1
			],
			"min":[
				-1,
				0,
				-1
			],
			"type":"VEC3"
		},
		{
			"bufferView":1,
			"componentType":5126,
			"count":4,
			"type":"VEC2"
		},
		{
			"bufferView":2,
			"componentType":5126,
			"count":4,
			"type":"VEC3"
		},
		{
			"bufferView":3,
			"componentType":5123,
			"count":6,
			"type":"SCALAR"
		},
		{
			"bufferView":4,
			"componentType":5126,
			"count":7364,
			"max":[
				1.1857999563217163,
				0.019999999552965164,
				0.20179998874664307
			],
			"min":[
				0.009600000455975533,
				-0.019999999552965164,
				-0.1364000141620636
			],
			"type":"VEC3"
		},
		{
			"bufferView":5,
			"componentType":5126,
			"count":7364,
			"type":"VEC2"
		},
		{
			"bufferView":6,
			"componentType":5126,
			"count":7364,
			"type":"VEC3"
		},
		{
			"bufferView":7,
			"componentType":5123,
			"count":21648,
			"type":"SCALAR"
		},
		{
			"bufferView":8,
			"componentType":5126,
			"count":2040,
			"max":[
				0.49400001764297485,
				0.019999999552965164,
				0.023600002750754356
			],
			"min":[
				0.006400000303983688,
				-0.019999999552965164,
				-0.13820001482963562
			],
			"type":"VEC3"
		},
		{
			"bufferView":9,
			"componentType":5126,
			"count":2040,
			"type":"VEC2"
		},
		{
			"bufferView":10,
			"componentType":5126,
			"count":2040,
			"type":"VEC3"
		},
		{
			"bufferView":11,
			"componentType":5123,
			"count":6012,
			"type":"SCALAR"
		},
		{
			"bufferView":12,
			"componentType":5126,
			"count":1136,
			"max":[
				0.1210000067949295,
				0.019999999552965164,
				0.001125000067986548
			],
			"min":[
				0.0042500002309679985,
				-0.019999999552965164,
				-0.08637500554323196
			],
			"type":"VEC3"
		},
		{
			"bufferView":13,
			"componentType":5126,
			"count":1136,
			"type":"VEC2"
		},
		{
			"bufferView":14,
			"componentType":5126,
			"count":1136,
			"type":"VEC3"
		},
		{
			"bufferView":15,
			"componentType":5123,
			"count":3372,
			"type":"SCALAR"
		}
	],
	"bufferViews":[
		{
			"buffer":0,
			"byteLength":48,
			"byteOffset":0,
			"target":34962
		},
		{
			"buffer":0,
			"byteLength":32,
			"byteOffset":48,
			"target":34962
		},
		{
			"buffer":0,
			"byteLength":48,
			"byteOffset":80,
			"target":34962
		},
		{
			"buffer":0,
			"byteLength":12,
			"byteOffset":128,
			"target":34963
		},
		{
			"buffer":0,
			"byteLength":88368,
			"byteOffset":140,
			"target":34962
		},
		{
			"buffer":0,
			"byteLength":58912,
			"byteOffset":88508,
			"target":34962
		},
		{
			"buffer":0,
			"byteLength":88368,
			"byteOffset":147420,
			"target":34962
		},
		{
			"buffer":0,
			"byteLength":43296,
			"byteOffset":235788,
			"target":34963
		},
		{
			"buffer":0,
			"byteLength":24480,
			"byteOffset":279084,
			"target":34962
		},
		{
			"buffer":0,
			"byteLength":16320,
			"byteOffset":303564,
			"target":34962
		},
		{
			"buffer":0,
			"byteLength":24480,
			"byteOffset":319884,
			"target":34962
		},
		{
			"buffer":0,
			"byteLength":12024,
			"byteOffset":344364,
			"target":34963
		},
		{
			"buffer":0,
			"byteLength":13632,
			"byteOffset":356388,
			"target":34962
		},
		{
			"buffer":0,
			"byteLength":9088,
			"byteOffset":370020,
			"target":34962
		},
		{
			"buffer":0,
			"byteLength":13632,
			"byteOffset":379108,
			"target":34962
		},
		{
			"buffer":0,
			"byteLength":6744,
			"byteOffset":392740,
			"target":34963
		}
	],
	"buffers":[
		{
			"byteLength":399484,
			"uri":"data:application/octet-stream;base64,"
		}
	]
}
