{
	"asset":{
		"generator":"Khronos glTF Blender I/O v3.5.30",
		"version":"2.0"
	},
	"scene":0,
	"scenes":[
		{
			"name":"Scene",
			"nodes":[
				0
			]
		}
	],
	"nodes":[
		{
			"mesh":0,
			"name":"Text",
			"rotation":[
				0.7071068286895752,
				0,
				0,
				0.7071068286895752
			]
		}
	],
	"materials":[
		{
			"doubleSided":true,
			"name":"Material.001",
			"pbrMetallicRoughness":{
				"baseColorFactor":[
					0.04767436161637306,
					0.39311888813972473,
					0,
					1
				],
				"metallicFactor":0,
				"roughnessFactor":0.5
			}
		}
	],
	"meshes":[
		{
			"name":"Text",
			"primitives":[
				{
					"attributes":{
						"POSITION":0,
						"TEXCOORD_0":1,
						"NORMAL":2
					},
					"indices":3,
					"material":0
				}
			]
		}
	],
	"accessors":[
		{
			"bufferView":0,
			"componentType":5126,
			"count":15014,
			"max":[
				8.178000450134277,
				0.05000000074505806,
				4.230000019073486
			],
			"min":[
				0.01100000087171793,
				-0.05000000074505806,
				-0.6910000443458557
			],
			"type":"VEC3"
		},
		{
			"bufferView":1,
			"componentType":5126,
			"count":15014,
			"type":"VEC2"
		},
		{
			"bufferView":2,
			"componentType":5126,
			"count":15014,
			"type":"VEC3"
		},
		{
			"bufferView":3,
			"componentType":5123,
			"count":44352,
			"type":"SCALAR"
		}
	],
	"bufferViews":[
		{
			"buffer":0,
			"byteLength":180168,
			"byteOffset":0,
			"target":34962
		},
		{
			"buffer":0,
			"byteLength":120112,
			"byteOffset":180168,
			"target":34962
		},
		{
			"buffer":0,
			"byteLength":180168,
			"byteOffset":300280,
			"target":34962
		},
		{
			"buffer":0,
			"byteLength":88704,
			"byteOffset":480448,
			"target":34963
		}
	],
	"buffers":[
		{
			"byteLength":569152,
			"uri":"data:application/octet-stream;base64,"
		}
	]
}
