{
	"asset":{
		"generator":"Khronos glTF Blender I/O v3.5.30",
		"version":"2.0"
	},
	"scene":0,
	"scenes":[
		{
			"name":"Scene",
			"nodes":[
				0
			]
		}
	],
	"nodes":[
		{
			"mesh":0,
			"name":"Text",
			"rotation":[
				0.7071068286895752,
				0,
				0,
				0.7071068286895752
			],
			"translation":[
				0,
				2,
				0
			]
		}
	],
	"materials":[
		{
			"doubleSided":true,
			"name":"Material.002",
			"pbrMetallicRoughness":{
				"baseColorFactor":[
					0,
					0,
					0.8000000715255737,
					1
				],
				"metallicFactor":0,
				"roughnessFactor":0.5
			}
		}
	],
	"meshes":[
		{
			"name":"Text",
			"primitives":[
				{
					"attributes":{
						"POSITION":0,
						"TEXCOORD_0":1,
						"NORMAL":2
					},
					"indices":3,
					"material":0
				}
			]
		}
	],
	"accessors":[
		{
			"bufferView":0,
			"componentType":5126,
			"count":11448,
			"max":[
				4.057000160217285,
				0.04999999701976776,
				4.230000019073486
			],
			"min":[
				0.04000000283122063,
				-0.04999999701976776,
				-0.6910000443458557
			],
			"type":"VEC3"
		},
		{
			"bufferView":1,
			"componentType":5126,
			"count":11448,
			"type":"VEC2"
		},
		{
			"bufferView":2,
			"componentType":5126,
			"count":11448,
			"type":"VEC3"
		},
		{
			"bufferView":3,
			"componentType":5123,
			"count":33840,
			"type":"SCALAR"
		}
	],
	"bufferViews":[
		{
			"buffer":0,
			"byteLength":137376,
			"byteOffset":0,
			"target":34962
		},
		{
			"buffer":0,
			"byteLength":91584,
			"byteOffset":137376,
			"target":34962
		},
		{
			"buffer":0,
			"byteLength":137376,
			"byteOffset":228960,
			"target":34962
		},
		{
			"buffer":0,
			"byteLength":67680,
			"byteOffset":366336,
			"target":34963
		}
	],
	"buffers":[
		{
			"byteLength":434016,
			"uri":"data:application/octet-stream;base64,"
		}
	]
}
