{
	"asset":{
		"generator":"Khronos glTF Blender I/O v3.5.30",
		"version":"2.0"
	},
	"scene":0,
	"scenes":[
		{
			"name":"Scene",
			"nodes":[
				0,
				1,
				2,
				3,
				4,
				5
			]
		}
	],
	"nodes":[
		{
			"mesh":0,
			"name":"background",
			"rotation":[
				0.7071068286895752,
				0,
				0,
				0.7071068286895752
			],
			"translation":[
				0.800000011920929,
				-0.699999988079071,
				0
			]
		},
		{
			"mesh":1,
			"name":"name",
			"rotation":[
				0.7071068286895752,
				0,
				0,
				0.7071068286895752
			]
		},
		{
			"mesh":2,
			"name":"mark",
			"rotation":[
				0.7071068286895752,
				0,
				0,
				0.7071068286895752
			],
			"translation":[
				0,
				-0.46755215525627136,
				0
			]
		},
		{
			"mesh":3,
			"name":"reviews",
			"rotation":[
				0.7071068286895752,
				0,
				0,
				0.7071068286895752
			],
			"translation":[
				0,
				-0.6175521612167358,
				0
			]
		},
		{
			"name":"pay",
			"rotation":[
				0.7071068286895752,
				0,
				0,
				0.7071068286895752
			],
			"translation":[
				0,
				-0.9675521850585938,
				0
			]
		},
		{
			"name":"insider",
			"rotation":[
				0.7071068286895752,
				0,
				0,
				0.7071068286895752
			],
			"translation":[
				0,
				-1.1788233518600464,
				0
			]
		}
	],
	"materials":[
		{
			"doubleSided":true,
			"name":"Material.004",
			"pbrMetallicRoughness":{
				"baseColorFactor":[
					0.8000000715255737,
					0.7407233119010925,
					0.34376785159111023,
					1
				],
				"metallicFactor":0,
				"roughnessFactor":0.5
			}
		},
		{
			"doubleSided":true,
			"name":"Material.002",
			"pbrMetallicRoughness":{
				"baseColorFactor":[
					0.004396624863147736,
					0.5070470571517944,
					0,
					1
				],
				"metallicFactor":0,
				"roughnessFactor":0.5
			}
		},
		{
			"doubleSided":true,
			"name":"Material.005",
			"pbrMetallicRoughness":{
				"baseColorFactor":[
					0,
					0.027033451944589615,
					1,
					1
				],
				"metallicFactor":0,
				"roughnessFactor":0.5
			}
		},
		{
			"doubleSided":true,
			"name":"Material.003",
			"pbrMetallicRoughness":{
				"baseColorFactor":[
					0,
					0,
					0,
					1
				],
				"metallicFactor":0,
				"roughnessFactor":0.5
			}
		}
	],
	"meshes":[
		{
			"name":"Plane",
			"primitives":[
				{
					"attributes":{
						"POSITION":0,
						"TEXCOORD_0":1,
						"NORMAL":2
					},
					"indices":3,
					"material":0
				}
			]
		},
		{
			"name":"Text",
			"primitives":[
				{
					"attributes":{
						"POSITION":4,
						"TEXCOORD_0":5,
						"NORMAL":6
					},
					"indices":7,
					"material":1
				}
			]
		},
		{
			"name":"Text.001",
			"primitives":[
				{
					"attributes":{
						"POSITION":8,
						"TEXCOORD_0":9,
						"NORMAL":10
					},
					"indices":11,
					"material":2
				}
			]
		},
		{
			"name":"Text.002",
			"primitives":[
				{
					"attributes":{
						"POSITION":12,
						"TEXCOORD_0":13,
						"NORMAL":14
					},
					"indices":15,
					"material":3
				}
			]
		}
	],
	"accessors":[
		{
			"bufferView":0,
			"componentType":5126,
			"count":4,
			"max":[
				1,
				0,
				1
			],
			"min":[
				-1,
				0,
				-1
			],
			"type":"VEC3"
		},
		{
			"bufferView":1,
			"componentType":5126,
			"count":4,
			"type":"VEC2"
		},
		{
			"bufferView":2,
			"componentType":5126,
			"count":4,
			"type":"VEC3"
		},
		{
			"bufferView":3,
			"componentType":5123,
			"count":6,
			"type":"SCALAR"
		},
		{
			"bufferView":4,
			"componentType":5126,
			"count":12826,
			"max":[
				1.5333999395370483,
				0.019999999552965164,
				0.20179998874664307
			],
			"min":[
				0.011800001375377178,
				-0.019999999552965164,
				-0.1364000141620636
			],
			"type":"VEC3"
		},
		{
			"bufferView":5,
			"componentType":5126,
			"count":12826,
			"type":"VEC2"
		},
		{
			"bufferView":6,
			"componentType":5126,
			"count":12826,
			"type":"VEC3"
		},
		{
			"bufferView":7,
			"componentType":5123,
			"count":37956,
			"type":"SCALAR"
		},
		{
			"bufferView":8,
			"componentType":5126,
			"count":960,
			"max":[
				0.35020002722740173,
				0.019999999552965164,
				0.0018000000854954123
			],
			"min":[
				0.007200000341981649,
				-0.019999999552965164,
				-0.13820001482963562
			],
			"type":"VEC3"
		},
		{
			"bufferView":9,
			"componentType":5126,
			"count":960,
			"type":"VEC2"
		},
		{
			"bufferView":10,
			"componentType":5126,
			"count":960,
			"type":"VEC3"
		},
		{
			"bufferView":11,
			"componentType":5123,
			"count":2820,
			"type":"SCALAR"
		},
		{
			"bufferView":12,
			"componentType":5126,
			"count":982,
			"max":[
				0.24562500417232513,
				0.019999999552965164,
				0.001125000067986548
			],
			"min":[
				0.0013750001089647412,
				-0.019999999552965164,
				-0.08637500554323196
			],
			"type":"VEC3"
		},
		{
			"bufferView":13,
			"componentType":5126,
			"count":982,
			"type":"VEC2"
		},
		{
			"bufferView":14,
			"componentType":5126,
			"count":982,
			"type":"VEC3"
		},
		{
			"bufferView":15,
			"componentType":5123,
			"count":2868,
			"type":"SCALAR"
		}
	],
	"bufferViews":[
		{
			"buffer":0,
			"byteLength":48,
			"byteOffset":0,
			"target":34962
		},
		{
			"buffer":0,
			"byteLength":32,
			"byteOffset":48,
			"target":34962
		},
		{
			"buffer":0,
			"byteLength":48,
			"byteOffset":80,
			"target":34962
		},
		{
			"buffer":0,
			"byteLength":12,
			"byteOffset":128,
			"target":34963
		},
		{
			"buffer":0,
			"byteLength":153912,
			"byteOffset":140,
			"target":34962
		},
		{
			"buffer":0,
			"byteLength":102608,
			"byteOffset":154052,
			"target":34962
		},
		{
			"buffer":0,
			"byteLength":153912,
			"byteOffset":256660,
			"target":34962
		},
		{
			"buffer":0,
			"byteLength":75912,
			"byteOffset":410572,
			"target":34963
		},
		{
			"buffer":0,
			"byteLength":11520,
			"byteOffset":486484,
			"target":34962
		},
		{
			"buffer":0,
			"byteLength":7680,
			"byteOffset":498004,
			"target":34962
		},
		{
			"buffer":0,
			"byteLength":11520,
			"byteOffset":505684,
			"target":34962
		},
		{
			"buffer":0,
			"byteLength":5640,
			"byteOffset":517204,
			"target":34963
		},
		{
			"buffer":0,
			"byteLength":11784,
			"byteOffset":522844,
			"target":34962
		},
		{
			"buffer":0,
			"byteLength":7856,
			"byteOffset":534628,
			"target":34962
		},
		{
			"buffer":0,
			"byteLength":11784,
			"byteOffset":542484,
			"target":34962
		},
		{
			"buffer":0,
			"byteLength":5736,
			"byteOffset":554268,
			"target":34963
		}
	],
	"buffers":[
		{
			"byteLength":560004,
			"uri":"data:application/octet-stream;base64,"
		}
	]
}
