{
	"asset":{
		"generator":"Khronos glTF Blender I/O v3.5.30",
		"version":"2.0"
	},
	"scene":0,
	"scenes":[
		{
			"name":"Scene",
			"nodes":[
				0,
				1,
				2,
				3,
				4,
				5,
				6
			]
		}
	],
	"nodes":[
		{
			"mesh":0,
			"name":"background",
			"rotation":[
				0.70710688829422,
				0,
				0,
				0.7071066498756409
			],
			"translation":[
				0.800000011920929,
				-0.699999988079071,
				0
			]
		},
		{
			"mesh":1,
			"name":"name",
			"rotation":[
				0.70710688829422,
				0,
				0,
				0.7071066498756409
			]
		},
		{
			"mesh":2,
			"name":"mark",
			"rotation":[
				0.70710688829422,
				0,
				0,
				0.7071066498756409
			],
			"translation":[
				0,
				-0.46755215525627136,
				0
			]
		},
		{
			"mesh":3,
			"name":"reviews",
			"rotation":[
				0.70710688829422,
				0,
				0,
				0.7071066498756409
			],
			"translation":[
				0,
				-0.6175521612167358,
				0
			]
		},
		{
			"mesh":4,
			"name":"pay",
			"rotation":[
				0.70710688829422,
				0,
				0,
				0.7071066498756409
			],
			"translation":[
				0,
				-0.9675521850585938,
				0
			]
		},
		{
			"mesh":5,
			"name":"insider",
			"rotation":[
				0.70710688829422,
				0,
				0,
				0.7071066498756409
			],
			"translation":[
				0,
				-1.1788233518600464,
				0
			]
		},
		{
			"name":"logo",
			"rotation":[
				0.70710688829422,
				0,
				0,
				0.7071066498756409
			],
			"translation":[
				1.560926079750061,
				-1.47663152217865,
				2.1567739167949185e-06
			]
		}
	],
	"materials":[
		{
			"doubleSided":true,
			"name":"Material.022",
			"pbrMetallicRoughness":{
				"baseColorFactor":[
					0.8000000715255737,
					0.7407233119010925,
					0.34376785159111023,
					1
				],
				"metallicFactor":0,
				"roughnessFactor":0.5
			}
		},
		{
			"doubleSided":true,
			"name":"Material.023",
			"pbrMetallicRoughness":{
				"baseColorFactor":[
					0.004396624863147736,
					0.5070470571517944,
					0,
					1
				],
				"metallicFactor":0,
				"roughnessFactor":0.5
			}
		},
		{
			"doubleSided":true,
			"name":"Material.024",
			"pbrMetallicRoughness":{
				"baseColorFactor":[
					0,
					0.027033451944589615,
					1,
					1
				],
				"metallicFactor":0,
				"roughnessFactor":0.5
			}
		},
		{
			"doubleSided":true,
			"name":"Material.025",
			"pbrMetallicRoughness":{
				"baseColorFactor":[
					0,
					0,
					0,
					1
				],
				"metallicFactor":0,
				"roughnessFactor":0.5
			}
		},
		{
			"doubleSided":true,
			"name":"Material.026",
			"pbrMetallicRoughness":{
				"baseColorFactor":[
					0,
					0,
					0,
					1
				],
				"metallicFactor":0,
				"roughnessFactor":0.5
			}
		},
		{
			"doubleSided":true,
			"name":"Material.027",
			"pbrMetallicRoughness":{
				"baseColorFactor":[
					0.7105595469474792,
					0.523115336894989,
					0,
					1
				],
				"metallicFactor":0,
				"roughnessFactor":0.5
			}
		}
	],
	"meshes":[
		{
			"name":"Plane.004",
			"primitives":[
				{
					"attributes":{
						"POSITION":0,
						"TEXCOORD_0":1,
						"NORMAL":2
					},
					"indices":3,
					"material":0
				}
			]
		},
		{
			"name":"Text.012",
			"primitives":[
				{
					"attributes":{
						"POSITION":4,
						"TEXCOORD_0":5,
						"NORMAL":6
					},
					"indices":7,
					"material":1
				}
			]
		},
		{
			"name":"Text.013",
			"primitives":[
				{
					"attributes":{
						"POSITION":8,
						"TEXCOORD_0":9,
						"NORMAL":10
					},
					"indices":11,
					"material":2
				}
			]
		},
		{
			"name":"Text.014",
			"primitives":[
				{
					"attributes":{
						"POSITION":12,
						"TEXCOORD_0":13,
						"NORMAL":14
					},
					"indices":15,
					"material":3
				}
			]
		},
		{
			"name":"Text.015",
			"primitives":[
				{
					"attributes":{
						"POSITION":16,
						"TEXCOORD_0":17,
						"NORMAL":18
					},
					"indices":19,
					"material":4
				}
			]
		},
		{
			"name":"Text.016",
			"primitives":[
				{
					"attributes":{
						"POSITION":20,
						"TEXCOORD_0":21,
						"NORMAL":22
					},
					"indices":23,
					"material":5
				}
			]
		}
	],
	"accessors":[
		{
			"bufferView":0,
			"componentType":5126,
			"count":4,
			"max":[
				1,
				0,
				1
			],
			"min":[
				-1,
				0,
				-1
			],
			"type":"VEC3"
		},
		{
			"bufferView":1,
			"componentType":5126,
			"count":4,
			"type":"VEC2"
		},
		{
			"bufferView":2,
			"componentType":5126,
			"count":4,
			"type":"VEC3"
		},
		{
			"bufferView":3,
			"componentType":5123,
			"count":6,
			"type":"SCALAR"
		},
		{
			"bufferView":4,
			"componentType":5126,
			"count":2708,
			"max":[
				0.6160001158714294,
				0.019999999552965164,
				0.0018000000854954123
			],
			"min":[
				0.00800000037997961,
				-0.019999999552965164,
				-0.13820001482963562
			],
			"type":"VEC3"
		},
		{
			"bufferView":5,
			"componentType":5126,
			"count":2708,
			"type":"VEC2"
		},
		{
			"bufferView":6,
			"componentType":5126,
			"count":2708,
			"type":"VEC3"
		},
		{
			"bufferView":7,
			"componentType":5123,
			"count":7884,
			"type":"SCALAR"
		},
		{
			"bufferView":8,
			"componentType":5126,
			"count":1698,
			"max":[
				0.49400001764297485,
				0.019999999552965164,
				0.023600002750754356
			],
			"min":[
				0.007200000341981649,
				-0.019999999552965164,
				-0.13820001482963562
			],
			"type":"VEC3"
		},
		{
			"bufferView":9,
			"componentType":5126,
			"count":1698,
			"type":"VEC2"
		},
		{
			"bufferView":10,
			"componentType":5126,
			"count":1698,
			"type":"VEC3"
		},
		{
			"bufferView":11,
			"componentType":5123,
			"count":4992,
			"type":"SCALAR"
		},
		{
			"bufferView":12,
			"componentType":5126,
			"count":366,
			"max":[
				0.1862500011920929,
				0.019999999552965164,
				0.001125000067986548
			],
			"min":[
				0.0062500000931322575,
				-0.019999999552965164,
				-0.08525000512599945
			],
			"type":"VEC3"
		},
		{
			"bufferView":13,
			"componentType":5126,
			"count":366,
			"type":"VEC2"
		},
		{
			"bufferView":14,
			"componentType":5126,
			"count":366,
			"type":"VEC3"
		},
		{
			"bufferView":15,
			"componentType":5123,
			"count":1044,
			"type":"SCALAR"
		},
		{
			"bufferView":16,
			"componentType":5126,
			"count":314,
			"max":[
				0.35620003938674927,
				0.019999999552965164,
				0
			],
			"min":[
				0.014000000432133675,
				-0.019999999552965164,
				-0.1372000128030777
			],
			"type":"VEC3"
		},
		{
			"bufferView":17,
			"componentType":5126,
			"count":314,
			"type":"VEC2"
		},
		{
			"bufferView":18,
			"componentType":5126,
			"count":314,
			"type":"VEC3"
		},
		{
			"bufferView":19,
			"componentType":5123,
			"count":900,
			"type":"SCALAR"
		},
		{
			"bufferView":20,
			"componentType":5126,
			"count":1224,
			"max":[
				0.7186000347137451,
				0.019999999552965164,
				0.0018000000854954123
			],
			"min":[
				0.015200001187622547,
				-0.019999999552965164,
				-0.13820001482963562
			],
			"type":"VEC3"
		},
		{
			"bufferView":21,
			"componentType":5126,
			"count":1224,
			"type":"VEC2"
		},
		{
			"bufferView":22,
			"componentType":5126,
			"count":1224,
			"type":"VEC3"
		},
		{
			"bufferView":23,
			"componentType":5123,
			"count":3540,
			"type":"SCALAR"
		}
	],
	"bufferViews":[
		{
			"buffer":0,
			"byteLength":48,
			"byteOffset":0,
			"target":34962
		},
		{
			"buffer":0,
			"byteLength":32,
			"byteOffset":48,
			"target":34962
		},
		{
			"buffer":0,
			"byteLength":48,
			"byteOffset":80,
			"target":34962
		},
		{
			"buffer":0,
			"byteLength":12,
			"byteOffset":128,
			"target":34963
		},
		{
			"buffer":0,
			"byteLength":32496,
			"byteOffset":140,
			"target":34962
		},
		{
			"buffer":0,
			"byteLength":21664,
			"byteOffset":32636,
			"target":34962
		},
		{
			"buffer":0,
			"byteLength":32496,
			"byteOffset":54300,
			"target":34962
		},
		{
			"buffer":0,
			"byteLength":15768,
			"byteOffset":86796,
			"target":34963
		},
		{
			"buffer":0,
			"byteLength":20376,
			"byteOffset":102564,
			"target":34962
		},
		{
			"buffer":0,
			"byteLength":13584,
			"byteOffset":122940,
			"target":34962
		},
		{
			"buffer":0,
			"byteLength":20376,
			"byteOffset":136524,
			"target":34962
		},
		{
			"buffer":0,
			"byteLength":9984,
			"byteOffset":156900,
			"target":34963
		},
		{
			"buffer":0,
			"byteLength":4392,
			"byteOffset":166884,
			"target":34962
		},
		{
			"buffer":0,
			"byteLength":2928,
			"byteOffset":171276,
			"target":34962
		},
		{
			"buffer":0,
			"byteLength":4392,
			"byteOffset":174204,
			"target":34962
		},
		{
			"buffer":0,
			"byteLength":2088,
			"byteOffset":178596,
			"target":34963
		},
		{
			"buffer":0,
			"byteLength":3768,
			"byteOffset":180684,
			"target":34962
		},
		{
			"buffer":0,
			"byteLength":2512,
			"byteOffset":184452,
			"target":34962
		},
		{
			"buffer":0,
			"byteLength":3768,
			"byteOffset":186964,
			"target":34962
		},
		{
			"buffer":0,
			"byteLength":1800,
			"byteOffset":190732,
			"target":34963
		},
		{
			"buffer":0,
			"byteLength":14688,
			"byteOffset":192532,
			"target":34962
		},
		{
			"buffer":0,
			"byteLength":9792,
			"byteOffset":207220,
			"target":34962
		},
		{
			"buffer":0,
			"byteLength":14688,
			"byteOffset":217012,
			"target":34962
		},
		{
			"buffer":0,
			"byteLength":7080,
			"byteOffset":231700,
			"target":34963
		}
	],
	"buffers":[
		{
			"byteLength":238780,
			"uri":"data:application/octet-stream;base64,"
		}
	]
}
