{
	"asset":{
		"generator":"Khronos glTF Blender I/O v3.5.30",
		"version":"2.0"
	},
	"scene":0,
	"scenes":[
		{
			"name":"Scene",
			"nodes":[
				0,
				1,
				2,
				3,
				4,
				5
			]
		}
	],
	"nodes":[
		{
			"mesh":0,
			"name":"background",
			"rotation":[
				0.7071068286895752,
				0,
				0,
				0.7071068286895752
			],
			"translation":[
				0.800000011920929,
				-0.699999988079071,
				0
			]
		},
		{
			"mesh":1,
			"name":"name",
			"rotation":[
				0.7071068286895752,
				0,
				0,
				0.7071068286895752
			]
		},
		{
			"mesh":2,
			"name":"mark",
			"rotation":[
				0.7071068286895752,
				0,
				0,
				0.7071068286895752
			],
			"translation":[
				0,
				-0.46755215525627136,
				0
			]
		},
		{
			"mesh":3,
			"name":"reviews",
			"rotation":[
				0.7071068286895752,
				0,
				0,
				0.7071068286895752
			],
			"translation":[
				0,
				-0.6175521612167358,
				0
			]
		},
		{
			"mesh":4,
			"name":"pay",
			"rotation":[
				0.7071068286895752,
				0,
				0,
				0.7071068286895752
			],
			"translation":[
				0,
				-0.9675521850585938,
				0
			]
		},
		{
			"mesh":5,
			"name":"insider",
			"rotation":[
				0.7071068286895752,
				0,
				0,
				0.7071068286895752
			],
			"translation":[
				0,
				-1.1788233518600464,
				0
			]
		}
	],
	"materials":[
		{
			"doubleSided":true,
			"name":"Material.004",
			"pbrMetallicRoughness":{
				"baseColorFactor":[
					0.8000000715255737,
					0.7407233119010925,
					0.34376785159111023,
					1
				],
				"metallicFactor":0,
				"roughnessFactor":0.5
			}
		},
		{
			"doubleSided":true,
			"name":"Material.002",
			"pbrMetallicRoughness":{
				"baseColorFactor":[
					0.004396624863147736,
					0.5070470571517944,
					0,
					1
				],
				"metallicFactor":0,
				"roughnessFactor":0.5
			}
		},
		{
			"doubleSided":true,
			"name":"Material.005",
			"pbrMetallicRoughness":{
				"baseColorFactor":[
					0,
					0.027033451944589615,
					1,
					1
				],
				"metallicFactor":0,
				"roughnessFactor":0.5
			}
		},
		{
			"doubleSided":true,
			"name":"Material.003",
			"pbrMetallicRoughness":{
				"baseColorFactor":[
					0,
					0,
					0,
					1
				],
				"metallicFactor":0,
				"roughnessFactor":0.5
			}
		},
		{
			"doubleSided":true,
			"name":"Material.001",
			"pbrMetallicRoughness":{
				"baseColorFactor":[
					0,
					0,
					0,
					1
				],
				"metallicFactor":0,
				"roughnessFactor":0.5
			}
		},
		{
			"doubleSided":true,
			"name":"Material.006",
			"pbrMetallicRoughness":{
				"baseColorFactor":[
					0.7105595469474792,
					0.523115336894989,
					0,
					1
				],
				"metallicFactor":0,
				"roughnessFactor":0.5
			}
		}
	],
	"meshes":[
		{
			"name":"Plane",
			"primitives":[
				{
					"attributes":{
						"POSITION":0,
						"TEXCOORD_0":1,
						"NORMAL":2
					},
					"indices":3,
					"material":0
				}
			]
		},
		{
			"name":"Text",
			"primitives":[
				{
					"attributes":{
						"POSITION":4,
						"TEXCOORD_0":5,
						"NORMAL":6
					},
					"indices":7,
					"material":1
				}
			]
		},
		{
			"name":"Text.001",
			"primitives":[
				{
					"attributes":{
						"POSITION":8,
						"TEXCOORD_0":9,
						"NORMAL":10
					},
					"indices":11,
					"material":2
				}
			]
		},
		{
			"name":"Text.002",
			"primitives":[
				{
					"attributes":{
						"POSITION":12,
						"TEXCOORD_0":13,
						"NORMAL":14
					},
					"indices":15,
					"material":3
				}
			]
		},
		{
			"name":"Text.003",
			"primitives":[
				{
					"attributes":{
						"POSITION":16,
						"TEXCOORD_0":17,
						"NORMAL":18
					},
					"indices":19,
					"material":4
				}
			]
		},
		{
			"name":"Text.004",
			"primitives":[
				{
					"attributes":{
						"POSITION":20,
						"TEXCOORD_0":21,
						"NORMAL":22
					},
					"indices":23,
					"material":5
				}
			]
		}
	],
	"accessors":[
		{
			"bufferView":0,
			"componentType":5126,
			"count":4,
			"max":[
				1,
				0,
				1
			],
			"min":[
				-1,
				0,
				-1
			],
			"type":"VEC3"
		},
		{
			"bufferView":1,
			"componentType":5126,
			"count":4,
			"type":"VEC2"
		},
		{
			"bufferView":2,
			"componentType":5126,
			"count":4,
			"type":"VEC3"
		},
		{
			"bufferView":3,
			"componentType":5123,
			"count":6,
			"type":"SCALAR"
		},
		{
			"bufferView":4,
			"componentType":5126,
			"count":9072,
			"max":[
				1.511600136756897,
				0.019999999552965164,
				0.2460000067949295
			],
			"min":[
				0,
				-0.019999999552965164,
				-0.1364000141620636
			],
			"type":"VEC3"
		},
		{
			"bufferView":5,
			"componentType":5126,
			"count":9072,
			"type":"VEC2"
		},
		{
			"bufferView":6,
			"componentType":5126,
			"count":9072,
			"type":"VEC3"
		},
		{
			"bufferView":7,
			"componentType":5123,
			"count":26508,
			"type":"SCALAR"
		},
		{
			"bufferView":8,
			"componentType":5126,
			"count":1694,
			"max":[
				0.49400001764297485,
				0.019999999552965164,
				0.023600002750754356
			],
			"min":[
				0.007200000341981649,
				-0.019999999552965164,
				-0.13820001482963562
			],
			"type":"VEC3"
		},
		{
			"bufferView":9,
			"componentType":5126,
			"count":1694,
			"type":"VEC2"
		},
		{
			"bufferView":10,
			"componentType":5126,
			"count":1694,
			"type":"VEC3"
		},
		{
			"bufferView":11,
			"componentType":5123,
			"count":4992,
			"type":"SCALAR"
		},
		{
			"bufferView":12,
			"componentType":5126,
			"count":864,
			"max":[
				0.18312500417232513,
				0.019999999552965164,
				0.001125000067986548
			],
			"min":[
				0.02525000087916851,
				-0.019999999552965164,
				-0.08637500554323196
			],
			"type":"VEC3"
		},
		{
			"bufferView":13,
			"componentType":5126,
			"count":864,
			"type":"VEC2"
		},
		{
			"bufferView":14,
			"componentType":5126,
			"count":864,
			"type":"VEC3"
		},
		{
			"bufferView":15,
			"componentType":5123,
			"count":2544,
			"type":"SCALAR"
		},
		{
			"bufferView":16,
			"componentType":5126,
			"count":314,
			"max":[
				0.35620003938674927,
				0.019999999552965164,
				0
			],
			"min":[
				0.014000000432133675,
				-0.019999999552965164,
				-0.1372000128030777
			],
			"type":"VEC3"
		},
		{
			"bufferView":17,
			"componentType":5126,
			"count":314,
			"type":"VEC2"
		},
		{
			"bufferView":18,
			"componentType":5126,
			"count":314,
			"type":"VEC3"
		},
		{
			"bufferView":19,
			"componentType":5123,
			"count":900,
			"type":"SCALAR"
		},
		{
			"bufferView":20,
			"componentType":5126,
			"count":1218,
			"max":[
				0.7186000347137451,
				0.019999999552965164,
				0.0018000000854954123
			],
			"min":[
				0.015200001187622547,
				-0.019999999552965164,
				-0.13820001482963562
			],
			"type":"VEC3"
		},
		{
			"bufferView":21,
			"componentType":5126,
			"count":1218,
			"type":"VEC2"
		},
		{
			"bufferView":22,
			"componentType":5126,
			"count":1218,
			"type":"VEC3"
		},
		{
			"bufferView":23,
			"componentType":5123,
			"count":3540,
			"type":"SCALAR"
		}
	],
	"bufferViews":[
		{
			"buffer":0,
			"byteLength":48,
			"byteOffset":0,
			"target":34962
		},
		{
			"buffer":0,
			"byteLength":32,
			"byteOffset":48,
			"target":34962
		},
		{
			"buffer":0,
			"byteLength":48,
			"byteOffset":80,
			"target":34962
		},
		{
			"buffer":0,
			"byteLength":12,
			"byteOffset":128,
			"target":34963
		},
		{
			"buffer":0,
			"byteLength":108864,
			"byteOffset":140,
			"target":34962
		},
		{
			"buffer":0,
			"byteLength":72576,
			"byteOffset":109004,
			"target":34962
		},
		{
			"buffer":0,
			"byteLength":108864,
			"byteOffset":181580,
			"target":34962
		},
		{
			"buffer":0,
			"byteLength":53016,
			"byteOffset":290444,
			"target":34963
		},
		{
			"buffer":0,
			"byteLength":20328,
			"byteOffset":343460,
			"target":34962
		},
		{
			"buffer":0,
			"byteLength":13552,
			"byteOffset":363788,
			"target":34962
		},
		{
			"buffer":0,
			"byteLength":20328,
			"byteOffset":377340,
			"target":34962
		},
		{
			"buffer":0,
			"byteLength":9984,
			"byteOffset":397668,
			"target":34963
		},
		{
			"buffer":0,
			"byteLength":10368,
			"byteOffset":407652,
			"target":34962
		},
		{
			"buffer":0,
			"byteLength":6912,
			"byteOffset":418020,
			"target":34962
		},
		{
			"buffer":0,
			"byteLength":10368,
			"byteOffset":424932,
			"target":34962
		},
		{
			"buffer":0,
			"byteLength":5088,
			"byteOffset":435300,
			"target":34963
		},
		{
			"buffer":0,
			"byteLength":3768,
			"byteOffset":440388,
			"target":34962
		},
		{
			"buffer":0,
			"byteLength":2512,
			"byteOffset":444156,
			"target":34962
		},
		{
			"buffer":0,
			"byteLength":3768,
			"byteOffset":446668,
			"target":34962
		},
		{
			"buffer":0,
			"byteLength":1800,
			"byteOffset":450436,
			"target":34963
		},
		{
			"buffer":0,
			"byteLength":14616,
			"byteOffset":452236,
			"target":34962
		},
		{
			"buffer":0,
			"byteLength":9744,
			"byteOffset":466852,
			"target":34962
		},
		{
			"buffer":0,
			"byteLength":14616,
			"byteOffset":476596,
			"target":34962
		},
		{
			"buffer":0,
			"byteLength":7080,
			"byteOffset":491212,
			"target":34963
		}
	],
	"buffers":[
		{
			"byteLength":498292,
			"uri":"data:application/octet-stream;base64,"
		}
	]
}
