{
	"asset":{
		"generator":"Khronos glTF Blender I/O v3.5.30",
		"version":"2.0"
	},
	"scene":0,
	"scenes":[
		{
			"name":"Scene",
			"nodes":[
				0
			]
		}
	],
	"nodes":[
		{
			"mesh":0,
			"name":"Text"
		}
	],
	"materials":[
		{
			"doubleSided":true,
			"name":"Material.001",
			"pbrMetallicRoughness":{
				"baseColorFactor":[
					0,
					0,
					0.8000000715255737,
					1
				],
				"metallicFactor":0,
				"roughnessFactor":0.5
			}
		}
	],
	"meshes":[
		{
			"name":"Text",
			"primitives":[
				{
					"attributes":{
						"POSITION":0,
						"TEXCOORD_0":1,
						"NORMAL":2
					},
					"indices":3,
					"material":0
				}
			]
		}
	],
	"accessors":[
		{
			"bufferView":0,
			"componentType":5126,
			"count":11701,
			"max":[
				9.22700023651123,
				0.019999999552965164,
				3.2300000190734863
			],
			"min":[
				0.01100000087171793,
				-0.019999999552965164,
				-0.6910000443458557
			],
			"type":"VEC3"
		},
		{
			"bufferView":1,
			"componentType":5126,
			"count":11701,
			"type":"VEC2"
		},
		{
			"bufferView":2,
			"componentType":5126,
			"count":11701,
			"type":"VEC3"
		},
		{
			"bufferView":3,
			"componentType":5123,
			"count":34548,
			"type":"SCALAR"
		}
	],
	"bufferViews":[
		{
			"buffer":0,
			"byteLength":140412,
			"byteOffset":0,
			"target":34962
		},
		{
			"buffer":0,
			"byteLength":93608,
			"byteOffset":140412,
			"target":34962
		},
		{
			"buffer":0,
			"byteLength":140412,
			"byteOffset":234020,
			"target":34962
		},
		{
			"buffer":0,
			"byteLength":69096,
			"byteOffset":374432,
			"target":34963
		}
	],
	"buffers":[
		{
			"byteLength":443528,
			"uri":"data:application/octet-stream;base64,"
		}
	]
}
